<?xml version="1.0" encoding="utf-8"?>
<!-- Generator: Adobe Illustrator 25.0.1, SVG Export Plug-In . SVG Version: 6.00 Build 0)  -->
<svg version="1.0" id="katman_1" xmlns="http://www.w3.org/2000/svg" xmlns:xlink="http://www.w3.org/1999/xlink" x="0px" y="0px"
	 viewBox="0 0 560 400" style="enable-background:new 0 0 560 400;" xml:space="preserve">
<style type="text/css">
	.st0{fill:#2857AF;}
	.st1{fill:#FFFFFF;}
</style>
<g>
	<path class="st0" d="M416,64H144v272h272V64z"/>
	<path class="st1" d="M255,229.1c1.8,2.6,4,4.1,5.8,4c2.2-0.1,4.5-2.3,6.3-5.6c5.8-10.8,9.5-21.3,13.1-31.4
		c5.1-14.3,10.3-29,20.9-43c11.1-14.5,28.7-20.2,35.1-21.8c1-0.2,1.2-1.5,0.5-2.2c-15.6-12.5-35.2-19.9-56.7-19.9
		c-10.5,0-20.6,1.8-30,5.1c-11.6,4.1-19.4,15-19.7,27.2C229.9,165.4,233.6,199.3,255,229.1z"/>
	<path class="st1" d="M339.3,152.4c-9.6,1.2-16.8,8.2-21,13.7c-8.5,11.3-12.8,23.2-17.8,37.2c-4,10.9-7.9,22.2-14.5,34.5
		c-5.4,10.1-14.2,20.4-23.9,21.1c-0.6,0-1,0-1.6,0c-8.8,0-17.3-8.8-23.2-17.2c-21.9-30.7-28-64.3-28.7-90.2c0-2.4-3.1-3.2-4.4-1.2
		c-12.9,18.8-18.9,45.1-12.2,71.6c8.5,33.9,35.9,59.4,67.4,66.4c58.9,13.3,111.2-31.6,111.2-88.4c0-11.4-2.2-22.3-6-32.4
		c-2.8-7.4-9.1-13-16.8-14.7C345.1,152.2,342.1,152.1,339.3,152.4z"/>
</g>
</svg>
