<svg xmlns="http://www.w3.org/2000/svg" width="64" height="64" viewBox="0 0 64 64">
    <!-- Kontrolcü gövdesi -->
    <path d="M12 28 h40 a6 6 0 0 1 6 6 v12 a6 6 0 0 1 -6 6 h-40 a6 6 0 0 1 -6 -6 v-12 a6 6 0 0 1 6 -6 z"
          fill="#ffffff" stroke="#000000" stroke-width="2"/>
    <!-- Daire butonlar -->
    <circle cx="24" cy="36" r="4" fill="#000000"/>
    <circle cx="40" cy="36" r="4" fill="#000000"/>
    <!-- Artı buton (D-pad) -->
    <line x1="32" y1="40" x2="32" y2="46" stroke="#000000" stroke-width="2"/>
    <line x1="28" y1="43" x2="36" y2="43" stroke="#000000" stroke-width="2"/>
    <!-- Kedi kulakları -->
    <polygon points="20,18 16,6 28,18" fill="#ffffff" stroke="#000000" stroke-width="2"/>
    <polygon points="44,18 40,6 52,18" fill="#ffffff" stroke="#000000" stroke-width="2"/>
    <!-- Kedi bıyıkları -->
    <line x1="8"  y1="36" x2="16" y2="34" stroke="#000000" stroke-width="2"/>
    <line x1="8"  y1="40" x2="16" y2="40" stroke="#000000" stroke-width="2"/>
    <line x1="8"  y1="44" x2="16" y2="46" stroke="#000000" stroke-width="2"/>
    <line x1="56" y1="36" x2="48" y2="34" stroke="#000000" stroke-width="2"/>
    <line x1="56" y1="40" x2="48" y2="40" stroke="#000000" stroke-width="2"/>
    <line x1="56" y1="44" x2="48" y2="46" stroke="#000000" stroke-width="2"/>
</svg>
