<svg xmlns="http://www.w3.org/2000/svg" xmlns:xlink="http://www.w3.org/1999/xlink" viewBox="0 0 1263.88 202.24"><defs><style>.cls-1{fill:none;}.cls-2{clip-path:url(#clip-path);}.cls-3{fill:#ab9a8a;}</style><clipPath id="clip-path" transform="translate(29.64 -527.14)"><rect class="cls-1" width="1200" height="800"/></clipPath></defs><g id="katman_2" data-name="katman 2"><g id="Graphic_element" data-name="Graphic element"><g class="cls-2"><path class="cls-3" d="M459.61,619.94a22.44,22.44,0,0,1-18.86-10.48c-4.39-7.15-5.28-19.23,2.66-30.11,5.18-7.1,13-12.6,24.63-17.3,3.58-1.44,7.25-2.73,10.81-4a152.28,152.28,0,0,0,16.21-6.38c5.95-2.89,12-8,11-13.72a7.68,7.68,0,0,0-10.56-5.12l-2.4-4.38A12.66,12.66,0,0,1,511,537.16c1.19,7.16-3.95,14.27-13.76,19a157.17,157.17,0,0,1-16.75,6.6c-3.5,1.22-7.12,2.49-10.58,3.89C459.2,571,452.06,576,447.45,582.3c-5.6,7.68-6.6,17.77-2.44,24.55a17.55,17.55,0,0,0,16.26,8c6.85-.73,10.68-6.22,14.74-12,1.48-2.12,3-4.32,4.71-6.29,7.78-9,18.64-15.66,30-22.23,17.78-10.27,35.84-14.72,55-19.43l2.56-.63a53.25,53.25,0,0,1,17.49-.72c10.51,1.85,18.24,5.21,24.4,10.58l.18.18c1.19,1.26,2.4,2.48,3.57,3.66a81.8,81.8,0,0,1,6.64,7.22c2.5,2.64,5.41,4.27,7.81,4.37,9.17-.25,17.92,4.36,25.35,13.33L649.86,596c-6.53-7.88-13.72-11.76-21.44-11.52h-.15c-5.39-.17-9.8-4.27-11.44-6l-.15-.17a79.89,79.89,0,0,0-6.31-6.86c-1.17-1.18-2.38-2.39-3.59-3.68-5.43-4.7-12.36-7.67-21.81-9.33a48,48,0,0,0-15.7.68l-2.36.58c-18.77,4.63-36.49,9-53.66,18.91-11,6.35-21.48,12.74-28.74,21.17-1.53,1.77-2.92,3.77-4.4,5.88-4.31,6.18-9.2,13.19-18.31,14.15A20.09,20.09,0,0,1,459.61,619.94Z" transform="translate(29.64 -527.14)"/><path class="cls-3" d="M675.78,729.38a22.45,22.45,0,0,1-9.27-2C659.07,724,651.76,721,644,721.87c-10.14,1.12-39.34,2.75-61.23-11.66-1.21,1-2.47,2-3.76,2.89a85.44,85.44,0,0,1-56.16,15.33c-20.59-1.55-40.35-9.51-52.87-21.31-9.41-8.86-15.69-21.77-17.69-36.36-.28-2-.47-3.84-.66-5.64-1.15-10.88-1.68-15.84-15.24-16.68-11.63-.72-23.59,1-35.16,2.62-13.79,2-28,4-42.12,2.05-47.38-6.5-352.4-5.06-388.28-2l-.42-5c18.61-1.58,102.5-2.75,191-2.65,103.63.11,177.8,1.86,198.4,4.69,13.39,1.83,27.29-.14,40.73-2,11.82-1.68,24-3.41,36.18-2.66,17.78,1.1,18.71,9.95,19.9,21.15.19,1.75.38,3.56.64,5.48,1.85,13.46,7.59,25.32,16.17,33.4,11.53,10.88,30.62,18.52,49.82,20A80.4,80.4,0,0,0,576,709c.85-.61,1.68-1.23,2.49-1.87a53.31,53.31,0,0,1-11.4-12.44c-11.89-18-10.2-43.45,3.84-57.91a16.31,16.31,0,0,1,6.83-4.6c4.91-1.48,10.59.54,15.57,5.55,9.9,9.93,13.92,26,10.24,40.88-2.53,10.26-8.41,20-16.88,28,16.37,10.07,38.39,12.24,56.68,10.22,9.05-1,17.07,2.22,25.17,5.9,4.86,2.22,11.93,2.51,16.74-1.82a13,13,0,0,0,3-4.86c1.44-3.31,3.24-7.42,10-8.09,5.28-.53,9.79,1.15,14.15,2.77,4.63,1.72,9,3.34,14.12,2.29a27.72,27.72,0,0,0,7.28-2.77c5.13-2.67,12-7.45,15.63-15.09,3-6.4,1.36-11.3-.77-17.51-.51-1.49-1-3-1.54-4.66a25.06,25.06,0,0,1-.82-7.33,24.09,24.09,0,0,0-.3-4.62,16,16,0,0,0-2-3.88c-1.74-2.85-3.71-6.07-2.66-9.21.78-2.3,3.07-4.11,5.51-6,1.66-1.32,3.55-2.8,4.26-4a54.34,54.34,0,0,0,5.9-17.56c.68-6.3-.56-13.17-4-22.26a7.77,7.77,0,0,1-.21-4.36,12.05,12.05,0,0,0,.18-1.6v-.31l.09-.29c.28-1,.59-2,.89-3,1.16-3.74,2.26-7.28,2-10.71-.18-1-.33-2-.48-3-.73-4.71-1.35-8.81-3.33-12.92a27.91,27.91,0,0,0-2.58,2.28l-.67.64-.21.18c-1.3,1-2.68,1.84-4,2.67a36.9,36.9,0,0,0-5.86,4.23,7.74,7.74,0,0,1-5.55,2.4l-.27,0a123.08,123.08,0,0,1-13.66-3l-2.43-.63a118.37,118.37,0,0,0-25.15-1.4,41.91,41.91,0,0,0-14,3.62l-.2.08c-2.33.84-6.06.84-10.58-4l-.23-.27c-.37-.54-.71-1-1.05-1.52a37.81,37.81,0,0,0-3.45-4.53l-3.58-3.81-.44-.48a12.73,12.73,0,0,0-1.47-1.47l0,0a2.29,2.29,0,0,0-.54,1.3v.15c-.35,3.69-1,7.37-1.7,10.93-1.16,6.21-2.25,12.08-1.72,18,.09.58.17,1.19.24,1.81.35,2.88.68,4.83,2.13,5.71l-2.59,4.27c-3.64-2.2-4.14-6.35-4.5-9.38-.07-.58-.14-1.15-.23-1.68l0-.18c-.61-6.64.6-13.16,1.77-19.46.64-3.43,1.3-7,1.63-10.42a7.22,7.22,0,0,1,2-4.57,4.39,4.39,0,0,1,3.3-1.68c2.52,0,4.29,2,5.48,3.29l.37.4,3.57,3.81a41.3,41.3,0,0,1,3.93,5.11l.92,1.34c1.44,1.5,3.43,3.1,5,2.59a47.54,47.54,0,0,1,15.62-4h.13A123.17,123.17,0,0,1,718,565.77l.19,0,2.54.66a119.81,119.81,0,0,0,12.93,2.85,3.44,3.44,0,0,0,1.87-1.05,41.51,41.51,0,0,1,6.63-4.82c1.26-.79,2.46-1.53,3.56-2.35l.51-.5c2.12-2.05,4.76-4.6,7.5-4a3.92,3.92,0,0,1,2.76,2.5c2.54,5,3.29,9.84,4.07,15,.15,1,.31,2,.48,3.07l0,.18c.41,4.45-.9,8.66-2.16,12.74-.27.87-.54,1.73-.79,2.6,0,.66-.13,1.29-.21,1.85a7.32,7.32,0,0,0-.14,1.66l.05.12c2.54,6.69,5.33,15.55,4.33,24.72l0,.16a59.27,59.27,0,0,1-6.5,19.27c-1.2,2.08-3.39,3.8-5.51,5.47-1.5,1.19-3.56,2.81-3.86,3.7s1.19,3.38,2.18,5a18,18,0,0,1,2.61,5.53,28.35,28.35,0,0,1,.4,5.55,20.29,20.29,0,0,0,.61,5.92c.47,1.54,1,3,1.48,4.47,2.3,6.71,4.49,13,.55,21.29-4.23,8.88-12,14.35-17.83,17.38a32.48,32.48,0,0,1-8.58,3.22c-6.53,1.35-12-.69-16.87-2.49-4-1.49-7.79-2.91-11.92-2.49-3.88.39-4.61,2.07-5.94,5.12a17.52,17.52,0,0,1-4.28,6.58A19.17,19.17,0,0,1,675.78,729.38Zm-94.73-92.63a6.29,6.29,0,0,0-1.81.26,11.83,11.83,0,0,0-4.68,3.29c-12.48,12.85-13.91,35.54-3.26,51.67a47.25,47.25,0,0,0,11.2,11.82c8.2-7.56,13.88-16.7,16.26-26.33,3.26-13.25-.24-27.44-8.93-36.16C588.66,640.13,585,636.75,581.05,636.75Z" transform="translate(29.64 -527.14)"/><path class="cls-3" d="M699.44,670.71a19,19,0,0,1-7.27-1.41c-4-1.62-6.95-4.49-9.85-7.26-1.17-1.12-2.28-2.18-3.44-3.16a69.77,69.77,0,0,0-9.07-6.12,71.56,71.56,0,0,1-10.18-7c-11.59-10.09-15.76-27.73-9.9-41.94.25-.6.54-1.18.83-1.73a7.12,7.12,0,0,0,1.06-3.07c0-.84-1-2.35-1.78-3.45-.4-.6-.78-1.17-1.11-1.74l4.35-2.47c.24.41.57.91.92,1.44,1.17,1.76,2.5,3.75,2.62,6a11.13,11.13,0,0,1-1.6,5.58c-.24.47-.48.93-.66,1.39A32.73,32.73,0,0,0,662.91,642a66.23,66.23,0,0,0,9.49,6.48,74.29,74.29,0,0,1,9.7,6.58c1.29,1.08,2.5,2.24,3.68,3.37,2.68,2.56,5.21,5,8.29,6.25,7.59,3.12,16.38-1.38,24-5.85l2.53,4.32C713.71,667.18,706.48,670.71,699.44,670.71Z" transform="translate(29.64 -527.14)"/><path class="cls-3" d="M833.83,655.23c-20.15,0-40.43-.42-60.43-1.9l.37-5c32.75,2.43,66.39,2,98.92,1.54,15-.2,99.28-.49,180.77-.76s165.71-.55,180.71-.76l.07,5c-15,.21-99.28.49-180.77.76s-165.71.56-180.71.76C859.92,655.05,846.9,655.23,833.83,655.23Z" transform="translate(29.64 -527.14)"/></g></g></g></svg>